<mxfile host="Electron" agent="Mozilla/5.0 (Windows NT 10.0; Win64; x64) AppleWebKit/537.36 (KHTML, like Gecko) draw.io/27.0.9 Chrome/134.0.6998.205 Electron/35.4.0 Safari/537.36" version="27.0.9">
  <diagram name="第 1 页" id="AXvdT4sFR94Y4YyiD8JD">
    <mxGraphModel dx="2864" dy="2370" grid="1" gridSize="10" guides="1" tooltips="1" connect="1" arrows="1" fold="1" page="1" pageScale="1" pageWidth="827" pageHeight="1169" math="0" shadow="0">
      <root>
        <mxCell id="0" />
        <mxCell id="1" parent="0" />
        <mxCell id="211" value="" style="rounded=0;whiteSpace=wrap;html=1;fillColor=none;fontSize=17;container=0;" parent="1" vertex="1">
          <mxGeometry x="-420" y="-361" width="320" height="401" as="geometry" />
        </mxCell>
        <mxCell id="YWUKQ5pkmXSbJJqAoxHA-40" value="" style="rounded=0;whiteSpace=wrap;html=1;fillColor=none;fontSize=17;container=0;" parent="1" vertex="1">
          <mxGeometry x="140" y="-30" width="320" height="400" as="geometry" />
        </mxCell>
        <mxCell id="YWUKQ5pkmXSbJJqAoxHA-163" style="edgeStyle=orthogonalEdgeStyle;rounded=0;orthogonalLoop=1;jettySize=auto;html=1;exitX=0.996;exitY=0.276;exitDx=0;exitDy=0;entryX=-0.005;entryY=0.596;entryDx=0;entryDy=0;fontSize=17;exitPerimeter=0;entryPerimeter=0;strokeWidth=3;" parent="1" edge="1">
          <mxGeometry relative="1" as="geometry">
            <mxPoint x="-99.27999999999997" y="-250.60000000000014" as="sourcePoint" />
            <mxPoint x="-20" y="-250.27999999999997" as="targetPoint" />
            <Array as="points">
              <mxPoint x="-60" y="-251" />
              <mxPoint x="-20" y="-250" />
            </Array>
          </mxGeometry>
        </mxCell>
        <mxCell id="YWUKQ5pkmXSbJJqAoxHA-164" style="edgeStyle=orthogonalEdgeStyle;rounded=0;orthogonalLoop=1;jettySize=auto;html=1;exitX=0.001;exitY=0.656;exitDx=0;exitDy=0;entryX=1.002;entryY=0.326;entryDx=0;entryDy=0;fontSize=17;entryPerimeter=0;exitPerimeter=0;strokeWidth=3;" parent="1" edge="1">
          <mxGeometry relative="1" as="geometry">
            <mxPoint x="-99.36000000000013" y="-230.27400000000011" as="targetPoint" />
            <mxPoint x="-19.600000000000136" y="-230.42399999999998" as="sourcePoint" />
            <Array as="points">
              <mxPoint x="-80" y="-230" />
            </Array>
          </mxGeometry>
        </mxCell>
        <mxCell id="YWUKQ5pkmXSbJJqAoxHA-34" value="16" style="whiteSpace=wrap;html=1;aspect=fixed;fontSize=17;container=0;fillColor=#dae8fc;strokeColor=#6c8ebf;" parent="1" vertex="1">
          <mxGeometry x="160" y="310" width="40" height="40" as="geometry" />
        </mxCell>
        <mxCell id="YWUKQ5pkmXSbJJqAoxHA-35" value="17" style="whiteSpace=wrap;html=1;aspect=fixed;fontSize=17;container=0;fillColor=#dae8fc;strokeColor=#6c8ebf;" parent="1" vertex="1">
          <mxGeometry x="240" y="310" width="40" height="40" as="geometry" />
        </mxCell>
        <mxCell id="YWUKQ5pkmXSbJJqAoxHA-36" value="18" style="whiteSpace=wrap;html=1;aspect=fixed;fontSize=17;container=0;fillColor=#dae8fc;strokeColor=#6c8ebf;" parent="1" vertex="1">
          <mxGeometry x="320" y="310" width="40" height="40" as="geometry" />
        </mxCell>
        <mxCell id="YWUKQ5pkmXSbJJqAoxHA-37" value="19" style="whiteSpace=wrap;html=1;aspect=fixed;fontSize=17;container=0;fillColor=#dae8fc;strokeColor=#6c8ebf;" parent="1" vertex="1">
          <mxGeometry x="400" y="310" width="40" height="40" as="geometry" />
        </mxCell>
        <mxCell id="YWUKQ5pkmXSbJJqAoxHA-1" value="0" style="whiteSpace=wrap;html=1;aspect=fixed;fontSize=17;container=0;fillColor=#dae8fc;strokeColor=#6c8ebf;" parent="1" vertex="1">
          <mxGeometry x="160" y="-10" width="40" height="40" as="geometry" />
        </mxCell>
        <mxCell id="YWUKQ5pkmXSbJJqAoxHA-2" value="1" style="whiteSpace=wrap;html=1;aspect=fixed;fontSize=17;container=0;fillColor=#dae8fc;strokeColor=#6c8ebf;" parent="1" vertex="1">
          <mxGeometry x="240" y="-10" width="40" height="40" as="geometry" />
        </mxCell>
        <mxCell id="YWUKQ5pkmXSbJJqAoxHA-3" value="2" style="whiteSpace=wrap;html=1;aspect=fixed;fontSize=17;container=0;fillColor=#dae8fc;strokeColor=#6c8ebf;" parent="1" vertex="1">
          <mxGeometry x="320" y="-10" width="40" height="40" as="geometry" />
        </mxCell>
        <mxCell id="YWUKQ5pkmXSbJJqAoxHA-4" value="3" style="whiteSpace=wrap;html=1;aspect=fixed;fontSize=17;container=0;fillColor=#dae8fc;strokeColor=#6c8ebf;" parent="1" vertex="1">
          <mxGeometry x="400" y="-10" width="40" height="40" as="geometry" />
        </mxCell>
        <mxCell id="YWUKQ5pkmXSbJJqAoxHA-5" value="4" style="whiteSpace=wrap;html=1;aspect=fixed;fontSize=17;container=0;fillColor=#dae8fc;strokeColor=#6c8ebf;" parent="1" vertex="1">
          <mxGeometry x="160" y="70" width="40" height="40" as="geometry" />
        </mxCell>
        <mxCell id="YWUKQ5pkmXSbJJqAoxHA-6" value="5" style="whiteSpace=wrap;html=1;aspect=fixed;fontSize=17;container=0;fillColor=#dae8fc;strokeColor=#6c8ebf;" parent="1" vertex="1">
          <mxGeometry x="240" y="70" width="40" height="40" as="geometry" />
        </mxCell>
        <mxCell id="YWUKQ5pkmXSbJJqAoxHA-7" value="6" style="whiteSpace=wrap;html=1;aspect=fixed;fontSize=17;container=0;fillColor=#dae8fc;strokeColor=#6c8ebf;" parent="1" vertex="1">
          <mxGeometry x="320" y="70" width="40" height="40" as="geometry" />
        </mxCell>
        <mxCell id="YWUKQ5pkmXSbJJqAoxHA-8" value="7" style="whiteSpace=wrap;html=1;aspect=fixed;fontSize=17;container=0;fillColor=#dae8fc;strokeColor=#6c8ebf;" parent="1" vertex="1">
          <mxGeometry x="400" y="70" width="40" height="40" as="geometry" />
        </mxCell>
        <mxCell id="YWUKQ5pkmXSbJJqAoxHA-9" value="8" style="whiteSpace=wrap;html=1;aspect=fixed;fontSize=17;container=0;fillColor=#dae8fc;strokeColor=#6c8ebf;" parent="1" vertex="1">
          <mxGeometry x="160" y="150" width="40" height="40" as="geometry" />
        </mxCell>
        <mxCell id="YWUKQ5pkmXSbJJqAoxHA-10" value="9" style="whiteSpace=wrap;html=1;aspect=fixed;fontSize=17;container=0;fillColor=#dae8fc;strokeColor=#6c8ebf;" parent="1" vertex="1">
          <mxGeometry x="240" y="150" width="40" height="40" as="geometry" />
        </mxCell>
        <mxCell id="YWUKQ5pkmXSbJJqAoxHA-11" value="10" style="whiteSpace=wrap;html=1;aspect=fixed;fontSize=17;container=0;fillColor=#dae8fc;strokeColor=#6c8ebf;" parent="1" vertex="1">
          <mxGeometry x="320" y="150" width="40" height="40" as="geometry" />
        </mxCell>
        <mxCell id="YWUKQ5pkmXSbJJqAoxHA-12" value="11" style="whiteSpace=wrap;html=1;aspect=fixed;fontSize=17;container=0;fillColor=#dae8fc;strokeColor=#6c8ebf;" parent="1" vertex="1">
          <mxGeometry x="400" y="150" width="40" height="40" as="geometry" />
        </mxCell>
        <mxCell id="YWUKQ5pkmXSbJJqAoxHA-13" value="12" style="whiteSpace=wrap;html=1;aspect=fixed;fontSize=17;container=0;fillColor=#dae8fc;strokeColor=#6c8ebf;" parent="1" vertex="1">
          <mxGeometry x="160" y="230" width="40" height="40" as="geometry" />
        </mxCell>
        <mxCell id="YWUKQ5pkmXSbJJqAoxHA-14" value="13" style="whiteSpace=wrap;html=1;aspect=fixed;fontSize=17;container=0;fillColor=#dae8fc;strokeColor=#6c8ebf;" parent="1" vertex="1">
          <mxGeometry x="240" y="230" width="40" height="40" as="geometry" />
        </mxCell>
        <mxCell id="YWUKQ5pkmXSbJJqAoxHA-15" value="14" style="whiteSpace=wrap;html=1;aspect=fixed;fontSize=17;container=0;fillColor=#dae8fc;strokeColor=#6c8ebf;" parent="1" vertex="1">
          <mxGeometry x="320" y="230" width="40" height="40" as="geometry" />
        </mxCell>
        <mxCell id="YWUKQ5pkmXSbJJqAoxHA-16" value="15" style="whiteSpace=wrap;html=1;aspect=fixed;fontSize=17;container=0;fillColor=#dae8fc;strokeColor=#6c8ebf;" parent="1" vertex="1">
          <mxGeometry x="400" y="230" width="40" height="40" as="geometry" />
        </mxCell>
        <mxCell id="YWUKQ5pkmXSbJJqAoxHA-43" value="" style="rounded=0;whiteSpace=wrap;html=1;container=0;fillColor=none;fontSize=17;" parent="1" vertex="1">
          <mxGeometry x="-340" y="130" width="400" height="320" as="geometry" />
        </mxCell>
        <mxCell id="YWUKQ5pkmXSbJJqAoxHA-44" value="16" style="whiteSpace=wrap;html=1;aspect=fixed;container=0;fontSize=17;fillColor=#dae8fc;strokeColor=#6c8ebf;" parent="1" vertex="1">
          <mxGeometry x="-320" y="150" width="40" height="40" as="geometry" />
        </mxCell>
        <mxCell id="YWUKQ5pkmXSbJJqAoxHA-45" value="12" style="whiteSpace=wrap;html=1;aspect=fixed;container=0;fontSize=17;fillColor=#dae8fc;strokeColor=#6c8ebf;" parent="1" vertex="1">
          <mxGeometry x="-240" y="150" width="40" height="40" as="geometry" />
        </mxCell>
        <mxCell id="YWUKQ5pkmXSbJJqAoxHA-46" value="8" style="whiteSpace=wrap;html=1;aspect=fixed;container=0;fontSize=17;fillColor=#dae8fc;strokeColor=#6c8ebf;" parent="1" vertex="1">
          <mxGeometry x="-160" y="150" width="40" height="40" as="geometry" />
        </mxCell>
        <mxCell id="YWUKQ5pkmXSbJJqAoxHA-47" value="4" style="whiteSpace=wrap;html=1;aspect=fixed;container=0;fontSize=17;fillColor=#dae8fc;strokeColor=#6c8ebf;" parent="1" vertex="1">
          <mxGeometry x="-80" y="150" width="40" height="40" as="geometry" />
        </mxCell>
        <mxCell id="YWUKQ5pkmXSbJJqAoxHA-48" value="17" style="whiteSpace=wrap;html=1;aspect=fixed;container=0;fontSize=17;fillColor=#dae8fc;strokeColor=#6c8ebf;" parent="1" vertex="1">
          <mxGeometry x="-320" y="230" width="40" height="40" as="geometry" />
        </mxCell>
        <mxCell id="YWUKQ5pkmXSbJJqAoxHA-49" value="13" style="whiteSpace=wrap;html=1;aspect=fixed;container=0;fontSize=17;fillColor=#dae8fc;strokeColor=#6c8ebf;" parent="1" vertex="1">
          <mxGeometry x="-240" y="230" width="40" height="40" as="geometry" />
        </mxCell>
        <mxCell id="YWUKQ5pkmXSbJJqAoxHA-50" value="9" style="whiteSpace=wrap;html=1;aspect=fixed;container=0;fontSize=17;fillColor=#dae8fc;strokeColor=#6c8ebf;" parent="1" vertex="1">
          <mxGeometry x="-160" y="230" width="40" height="40" as="geometry" />
        </mxCell>
        <mxCell id="YWUKQ5pkmXSbJJqAoxHA-51" value="5" style="whiteSpace=wrap;html=1;aspect=fixed;container=0;fontSize=17;fillColor=#dae8fc;strokeColor=#6c8ebf;" parent="1" vertex="1">
          <mxGeometry x="-80" y="230" width="40" height="40" as="geometry" />
        </mxCell>
        <mxCell id="YWUKQ5pkmXSbJJqAoxHA-52" value="18" style="whiteSpace=wrap;html=1;aspect=fixed;container=0;fontSize=17;fillColor=#dae8fc;strokeColor=#6c8ebf;" parent="1" vertex="1">
          <mxGeometry x="-320" y="310" width="40" height="40" as="geometry" />
        </mxCell>
        <mxCell id="YWUKQ5pkmXSbJJqAoxHA-53" value="14" style="whiteSpace=wrap;html=1;aspect=fixed;container=0;fontSize=17;fillColor=#dae8fc;strokeColor=#6c8ebf;" parent="1" vertex="1">
          <mxGeometry x="-240" y="310" width="40" height="40" as="geometry" />
        </mxCell>
        <mxCell id="YWUKQ5pkmXSbJJqAoxHA-54" value="10" style="whiteSpace=wrap;html=1;aspect=fixed;container=0;fontSize=17;fillColor=#dae8fc;strokeColor=#6c8ebf;" parent="1" vertex="1">
          <mxGeometry x="-160" y="310" width="40" height="40" as="geometry" />
        </mxCell>
        <mxCell id="YWUKQ5pkmXSbJJqAoxHA-55" value="6" style="whiteSpace=wrap;html=1;aspect=fixed;container=0;fontSize=17;fillColor=#dae8fc;strokeColor=#6c8ebf;" parent="1" vertex="1">
          <mxGeometry x="-80" y="310" width="40" height="40" as="geometry" />
        </mxCell>
        <mxCell id="YWUKQ5pkmXSbJJqAoxHA-56" value="19" style="whiteSpace=wrap;html=1;aspect=fixed;container=0;fontSize=17;fillColor=#dae8fc;strokeColor=#6c8ebf;" parent="1" vertex="1">
          <mxGeometry x="-320" y="390" width="40" height="40" as="geometry" />
        </mxCell>
        <mxCell id="YWUKQ5pkmXSbJJqAoxHA-57" value="15" style="whiteSpace=wrap;html=1;aspect=fixed;container=0;fontSize=17;fillColor=#dae8fc;strokeColor=#6c8ebf;" parent="1" vertex="1">
          <mxGeometry x="-240" y="390" width="40" height="40" as="geometry" />
        </mxCell>
        <mxCell id="YWUKQ5pkmXSbJJqAoxHA-58" value="11" style="whiteSpace=wrap;html=1;aspect=fixed;container=0;fontSize=17;fillColor=#dae8fc;strokeColor=#6c8ebf;" parent="1" vertex="1">
          <mxGeometry x="-160" y="390" width="40" height="40" as="geometry" />
        </mxCell>
        <mxCell id="YWUKQ5pkmXSbJJqAoxHA-59" value="7" style="whiteSpace=wrap;html=1;aspect=fixed;container=0;fontSize=17;fillColor=#dae8fc;strokeColor=#6c8ebf;" parent="1" vertex="1">
          <mxGeometry x="-80" y="390" width="40" height="40" as="geometry" />
        </mxCell>
        <mxCell id="YWUKQ5pkmXSbJJqAoxHA-66" value="0" style="whiteSpace=wrap;html=1;aspect=fixed;container=0;fontSize=17;fillColor=#dae8fc;strokeColor=#6c8ebf;" parent="1" vertex="1">
          <mxGeometry y="150" width="40" height="40" as="geometry" />
        </mxCell>
        <mxCell id="YWUKQ5pkmXSbJJqAoxHA-67" value="1" style="whiteSpace=wrap;html=1;aspect=fixed;container=0;fontSize=17;fillColor=#dae8fc;strokeColor=#6c8ebf;" parent="1" vertex="1">
          <mxGeometry y="230" width="40" height="40" as="geometry" />
        </mxCell>
        <mxCell id="YWUKQ5pkmXSbJJqAoxHA-68" value="2" style="whiteSpace=wrap;html=1;aspect=fixed;container=0;fontSize=17;fillColor=#dae8fc;strokeColor=#6c8ebf;" parent="1" vertex="1">
          <mxGeometry y="310" width="40" height="40" as="geometry" />
        </mxCell>
        <mxCell id="YWUKQ5pkmXSbJJqAoxHA-69" value="3" style="whiteSpace=wrap;html=1;aspect=fixed;container=0;fontSize=17;fillColor=#dae8fc;strokeColor=#6c8ebf;" parent="1" vertex="1">
          <mxGeometry y="390" width="40" height="40" as="geometry" />
        </mxCell>
        <mxCell id="207" value="3" style="whiteSpace=wrap;html=1;aspect=fixed;fontSize=17;container=0;fillColor=#dae8fc;strokeColor=#6c8ebf;" parent="1" vertex="1">
          <mxGeometry x="-400" y="-20" width="40" height="40" as="geometry" />
        </mxCell>
        <mxCell id="208" value="2" style="whiteSpace=wrap;html=1;aspect=fixed;fontSize=17;container=0;fillColor=#dae8fc;strokeColor=#6c8ebf;" parent="1" vertex="1">
          <mxGeometry x="-320" y="-20" width="40" height="40" as="geometry" />
        </mxCell>
        <mxCell id="209" value="1" style="whiteSpace=wrap;html=1;aspect=fixed;fontSize=17;container=0;fillColor=#dae8fc;strokeColor=#6c8ebf;" parent="1" vertex="1">
          <mxGeometry x="-240" y="-20" width="40" height="40" as="geometry" />
        </mxCell>
        <mxCell id="210" value="0" style="whiteSpace=wrap;html=1;aspect=fixed;fontSize=17;container=0;fillColor=#dae8fc;strokeColor=#6c8ebf;" parent="1" vertex="1">
          <mxGeometry x="-160" y="-20" width="40" height="40" as="geometry" />
        </mxCell>
        <mxCell id="212" value="19" style="whiteSpace=wrap;html=1;aspect=fixed;fontSize=17;container=0;fillColor=#dae8fc;strokeColor=#6c8ebf;" parent="1" vertex="1">
          <mxGeometry x="-400" y="-340" width="40" height="40" as="geometry" />
        </mxCell>
        <mxCell id="213" value="18" style="whiteSpace=wrap;html=1;aspect=fixed;fontSize=17;container=0;fillColor=#dae8fc;strokeColor=#6c8ebf;" parent="1" vertex="1">
          <mxGeometry x="-320" y="-340" width="40" height="40" as="geometry" />
        </mxCell>
        <mxCell id="214" value="17" style="whiteSpace=wrap;html=1;aspect=fixed;fontSize=17;container=0;fillColor=#dae8fc;strokeColor=#6c8ebf;" parent="1" vertex="1">
          <mxGeometry x="-240" y="-340" width="40" height="40" as="geometry" />
        </mxCell>
        <mxCell id="215" value="16" style="whiteSpace=wrap;html=1;aspect=fixed;fontSize=17;container=0;fillColor=#dae8fc;strokeColor=#6c8ebf;" parent="1" vertex="1">
          <mxGeometry x="-160" y="-340" width="40" height="40" as="geometry" />
        </mxCell>
        <mxCell id="216" value="15" style="whiteSpace=wrap;html=1;aspect=fixed;fontSize=17;container=0;fillColor=#dae8fc;strokeColor=#6c8ebf;" parent="1" vertex="1">
          <mxGeometry x="-400" y="-260" width="40" height="40" as="geometry" />
        </mxCell>
        <mxCell id="217" value="14" style="whiteSpace=wrap;html=1;aspect=fixed;fontSize=17;container=0;fillColor=#dae8fc;strokeColor=#6c8ebf;" parent="1" vertex="1">
          <mxGeometry x="-320" y="-260" width="40" height="40" as="geometry" />
        </mxCell>
        <mxCell id="218" value="13" style="whiteSpace=wrap;html=1;aspect=fixed;fontSize=17;container=0;fillColor=#dae8fc;strokeColor=#6c8ebf;" parent="1" vertex="1">
          <mxGeometry x="-240" y="-260" width="40" height="40" as="geometry" />
        </mxCell>
        <mxCell id="219" value="12" style="whiteSpace=wrap;html=1;aspect=fixed;fontSize=17;container=0;fillColor=#dae8fc;strokeColor=#6c8ebf;" parent="1" vertex="1">
          <mxGeometry x="-160" y="-260" width="40" height="40" as="geometry" />
        </mxCell>
        <mxCell id="220" value="11" style="whiteSpace=wrap;html=1;aspect=fixed;fontSize=17;container=0;fillColor=#dae8fc;strokeColor=#6c8ebf;" parent="1" vertex="1">
          <mxGeometry x="-400" y="-180" width="40" height="40" as="geometry" />
        </mxCell>
        <mxCell id="221" value="10" style="whiteSpace=wrap;html=1;aspect=fixed;fontSize=17;container=0;fillColor=#dae8fc;strokeColor=#6c8ebf;" parent="1" vertex="1">
          <mxGeometry x="-320" y="-180" width="40" height="40" as="geometry" />
        </mxCell>
        <mxCell id="222" value="9" style="whiteSpace=wrap;html=1;aspect=fixed;fontSize=17;container=0;fillColor=#dae8fc;strokeColor=#6c8ebf;" parent="1" vertex="1">
          <mxGeometry x="-240" y="-180" width="40" height="40" as="geometry" />
        </mxCell>
        <mxCell id="223" value="8" style="whiteSpace=wrap;html=1;aspect=fixed;fontSize=17;container=0;fillColor=#dae8fc;strokeColor=#6c8ebf;" parent="1" vertex="1">
          <mxGeometry x="-160" y="-180" width="40" height="40" as="geometry" />
        </mxCell>
        <mxCell id="224" value="7" style="whiteSpace=wrap;html=1;aspect=fixed;fontSize=17;container=0;fillColor=#dae8fc;strokeColor=#6c8ebf;" parent="1" vertex="1">
          <mxGeometry x="-400" y="-100" width="40" height="40" as="geometry" />
        </mxCell>
        <mxCell id="225" value="6" style="whiteSpace=wrap;html=1;aspect=fixed;fontSize=17;container=0;fillColor=#dae8fc;strokeColor=#6c8ebf;" parent="1" vertex="1">
          <mxGeometry x="-320" y="-100" width="40" height="40" as="geometry" />
        </mxCell>
        <mxCell id="226" value="5" style="whiteSpace=wrap;html=1;aspect=fixed;fontSize=17;container=0;fillColor=#dae8fc;strokeColor=#6c8ebf;" parent="1" vertex="1">
          <mxGeometry x="-240" y="-100" width="40" height="40" as="geometry" />
        </mxCell>
        <mxCell id="227" value="4" style="whiteSpace=wrap;html=1;aspect=fixed;fontSize=17;container=0;fillColor=#dae8fc;strokeColor=#6c8ebf;" parent="1" vertex="1">
          <mxGeometry x="-160" y="-100" width="40" height="40" as="geometry" />
        </mxCell>
        <mxCell id="330" value="" style="rounded=0;whiteSpace=wrap;html=1;container=0;fillColor=none;fontSize=17;" parent="1" vertex="1">
          <mxGeometry x="-20" y="-441" width="400" height="321" as="geometry" />
        </mxCell>
        <mxCell id="331" value="3" style="whiteSpace=wrap;html=1;aspect=fixed;container=0;fontSize=17;fillColor=#dae8fc;strokeColor=#6c8ebf;" parent="1" vertex="1">
          <mxGeometry y="-421" width="40" height="40" as="geometry" />
        </mxCell>
        <mxCell id="332" value="7" style="whiteSpace=wrap;html=1;aspect=fixed;container=0;fontSize=17;fillColor=#dae8fc;strokeColor=#6c8ebf;" parent="1" vertex="1">
          <mxGeometry x="80" y="-421" width="40" height="40" as="geometry" />
        </mxCell>
        <mxCell id="333" value="11" style="whiteSpace=wrap;html=1;aspect=fixed;container=0;fontSize=17;fillColor=#dae8fc;strokeColor=#6c8ebf;" parent="1" vertex="1">
          <mxGeometry x="160" y="-421" width="40" height="40" as="geometry" />
        </mxCell>
        <mxCell id="334" value="15" style="whiteSpace=wrap;html=1;aspect=fixed;container=0;fontSize=17;fillColor=#dae8fc;strokeColor=#6c8ebf;" parent="1" vertex="1">
          <mxGeometry x="240" y="-421" width="40" height="40" as="geometry" />
        </mxCell>
        <mxCell id="335" value="2" style="whiteSpace=wrap;html=1;aspect=fixed;container=0;fontSize=17;fillColor=#dae8fc;strokeColor=#6c8ebf;" parent="1" vertex="1">
          <mxGeometry y="-341" width="40" height="40" as="geometry" />
        </mxCell>
        <mxCell id="336" value="6" style="whiteSpace=wrap;html=1;aspect=fixed;container=0;fontSize=17;fillColor=#dae8fc;strokeColor=#6c8ebf;" parent="1" vertex="1">
          <mxGeometry x="80" y="-341" width="40" height="40" as="geometry" />
        </mxCell>
        <mxCell id="337" value="10" style="whiteSpace=wrap;html=1;aspect=fixed;container=0;fontSize=17;fillColor=#dae8fc;strokeColor=#6c8ebf;" parent="1" vertex="1">
          <mxGeometry x="160" y="-341" width="40" height="40" as="geometry" />
        </mxCell>
        <mxCell id="338" value="14" style="whiteSpace=wrap;html=1;aspect=fixed;container=0;fontSize=17;fillColor=#dae8fc;strokeColor=#6c8ebf;" parent="1" vertex="1">
          <mxGeometry x="240" y="-341" width="40" height="40" as="geometry" />
        </mxCell>
        <mxCell id="339" value="1" style="whiteSpace=wrap;html=1;aspect=fixed;container=0;fontSize=17;fillColor=#dae8fc;strokeColor=#6c8ebf;" parent="1" vertex="1">
          <mxGeometry y="-261" width="40" height="40" as="geometry" />
        </mxCell>
        <mxCell id="340" value="5" style="whiteSpace=wrap;html=1;aspect=fixed;container=0;fontSize=17;fillColor=#dae8fc;strokeColor=#6c8ebf;" parent="1" vertex="1">
          <mxGeometry x="80" y="-261" width="40" height="40" as="geometry" />
        </mxCell>
        <mxCell id="341" value="8" style="whiteSpace=wrap;html=1;aspect=fixed;container=0;fontSize=17;fillColor=#dae8fc;strokeColor=#6c8ebf;" parent="1" vertex="1">
          <mxGeometry x="160" y="-261" width="40" height="40" as="geometry" />
        </mxCell>
        <mxCell id="342" value="13" style="whiteSpace=wrap;html=1;aspect=fixed;container=0;fontSize=17;fillColor=#dae8fc;strokeColor=#6c8ebf;" parent="1" vertex="1">
          <mxGeometry x="240" y="-261" width="40" height="40" as="geometry" />
        </mxCell>
        <mxCell id="343" value="0" style="whiteSpace=wrap;html=1;aspect=fixed;container=0;fontSize=17;fillColor=#dae8fc;strokeColor=#6c8ebf;" parent="1" vertex="1">
          <mxGeometry y="-181" width="40" height="40" as="geometry" />
        </mxCell>
        <mxCell id="344" value="4" style="whiteSpace=wrap;html=1;aspect=fixed;container=0;fontSize=17;fillColor=#dae8fc;strokeColor=#6c8ebf;" parent="1" vertex="1">
          <mxGeometry x="80" y="-181" width="40" height="40" as="geometry" />
        </mxCell>
        <mxCell id="345" value="8" style="whiteSpace=wrap;html=1;aspect=fixed;container=0;fontSize=17;fillColor=#dae8fc;strokeColor=#6c8ebf;" parent="1" vertex="1">
          <mxGeometry x="160" y="-181" width="40" height="40" as="geometry" />
        </mxCell>
        <mxCell id="346" value="12" style="whiteSpace=wrap;html=1;aspect=fixed;container=0;fontSize=17;fillColor=#dae8fc;strokeColor=#6c8ebf;" parent="1" vertex="1">
          <mxGeometry x="240" y="-181" width="40" height="40" as="geometry" />
        </mxCell>
        <mxCell id="347" value="19" style="whiteSpace=wrap;html=1;aspect=fixed;container=0;fontSize=17;fillColor=#dae8fc;strokeColor=#6c8ebf;" parent="1" vertex="1">
          <mxGeometry x="320" y="-421" width="40" height="40" as="geometry" />
        </mxCell>
        <mxCell id="348" value="18" style="whiteSpace=wrap;html=1;aspect=fixed;container=0;fontSize=17;fillColor=#dae8fc;strokeColor=#6c8ebf;" parent="1" vertex="1">
          <mxGeometry x="320" y="-341" width="40" height="40" as="geometry" />
        </mxCell>
        <mxCell id="349" value="17" style="whiteSpace=wrap;html=1;aspect=fixed;container=0;fontSize=17;fillColor=#dae8fc;strokeColor=#6c8ebf;" parent="1" vertex="1">
          <mxGeometry x="320" y="-261" width="40" height="40" as="geometry" />
        </mxCell>
        <mxCell id="350" value="16" style="whiteSpace=wrap;html=1;aspect=fixed;container=0;fontSize=17;fillColor=#dae8fc;strokeColor=#6c8ebf;" parent="1" vertex="1">
          <mxGeometry x="320" y="-181" width="40" height="40" as="geometry" />
        </mxCell>
        <mxCell id="OoqErYLvcgMZcJx9pa-s-452" style="edgeStyle=orthogonalEdgeStyle;rounded=0;orthogonalLoop=1;jettySize=auto;html=1;exitX=0.001;exitY=0.656;exitDx=0;exitDy=0;entryX=1.002;entryY=0.324;entryDx=0;entryDy=0;fontSize=17;entryPerimeter=0;exitPerimeter=0;strokeWidth=3;" parent="1" edge="1">
          <mxGeometry relative="1" as="geometry">
            <mxPoint x="-99.72000000000003" y="-311.4" as="targetPoint" />
            <mxPoint x="-20.720000000000027" y="-311.4" as="sourcePoint" />
          </mxGeometry>
        </mxCell>
        <mxCell id="OoqErYLvcgMZcJx9pa-s-453" style="edgeStyle=orthogonalEdgeStyle;rounded=0;orthogonalLoop=1;jettySize=auto;html=1;exitX=0.996;exitY=0.276;exitDx=0;exitDy=0;entryX=-0.005;entryY=0.596;entryDx=0;entryDy=0;fontSize=17;exitPerimeter=0;entryPerimeter=0;strokeWidth=3;" parent="1" edge="1">
          <mxGeometry relative="1" as="geometry">
            <mxPoint x="-100" y="-331.0000000000001" as="sourcePoint" />
            <mxPoint x="-20.720000000000027" y="-330.67999999999995" as="targetPoint" />
            <Array as="points">
              <mxPoint x="-21" y="-331" />
            </Array>
          </mxGeometry>
        </mxCell>
        <mxCell id="OoqErYLvcgMZcJx9pa-s-462" style="edgeStyle=orthogonalEdgeStyle;rounded=0;orthogonalLoop=1;jettySize=auto;html=1;exitX=0.563;exitY=-0.001;exitDx=0;exitDy=0;entryX=0.85;entryY=1.003;entryDx=0;entryDy=0;fontSize=17;entryPerimeter=0;exitPerimeter=0;strokeWidth=3;" parent="1" edge="1">
          <mxGeometry relative="1" as="geometry">
            <mxPoint x="331" y="-119.03700000000003" as="targetPoint" />
            <mxPoint x="331.15999999999985" y="-30.40000000000009" as="sourcePoint" />
          </mxGeometry>
        </mxCell>
        <mxCell id="YWUKQ5pkmXSbJJqAoxHA-159" style="edgeStyle=orthogonalEdgeStyle;rounded=0;orthogonalLoop=1;jettySize=auto;html=1;exitX=0.275;exitY=0;exitDx=0;exitDy=0;entryX=0.593;entryY=1.001;entryDx=0;entryDy=0;fontSize=17;entryPerimeter=0;exitPerimeter=0;strokeWidth=3;" parent="1" edge="1">
          <mxGeometry relative="1" as="geometry">
            <mxPoint x="-230.24" y="40.40099999999984" as="targetPoint" />
            <mxPoint x="-230" y="130" as="sourcePoint" />
            <Array as="points">
              <mxPoint x="-230" y="110" />
              <mxPoint x="-230" y="110" />
            </Array>
          </mxGeometry>
        </mxCell>
        <mxCell id="YWUKQ5pkmXSbJJqAoxHA-160" style="edgeStyle=orthogonalEdgeStyle;rounded=0;orthogonalLoop=1;jettySize=auto;html=1;entryX=0.327;entryY=0.002;entryDx=0;entryDy=0;fontSize=17;entryPerimeter=0;strokeWidth=3;" parent="1" edge="1">
          <mxGeometry relative="1" as="geometry">
            <mxPoint x="-210" y="40" as="sourcePoint" />
            <mxPoint x="-209.20000000000016" y="130.63999999999987" as="targetPoint" />
            <Array as="points">
              <mxPoint x="-209" y="40" />
            </Array>
          </mxGeometry>
        </mxCell>
        <mxCell id="YWUKQ5pkmXSbJJqAoxHA-168" value="" style="endArrow=classic;html=1;rounded=0;exitX=0;exitY=0.3;exitDx=0;exitDy=0;entryX=1;entryY=0.5;entryDx=0;entryDy=0;fontSize=17;exitPerimeter=0;strokeWidth=3;" parent="1" edge="1">
          <mxGeometry width="50" height="50" relative="1" as="geometry">
            <mxPoint x="140" y="104" as="sourcePoint" />
            <mxPoint x="-100" y="-146.5" as="targetPoint" />
          </mxGeometry>
        </mxCell>
        <mxCell id="YWUKQ5pkmXSbJJqAoxHA-171" value="" style="endArrow=classic;html=1;rounded=0;entryX=0;entryY=0.25;entryDx=0;entryDy=0;fontSize=17;exitX=1.002;exitY=0.455;exitDx=0;exitDy=0;exitPerimeter=0;strokeWidth=3;" parent="1" edge="1">
          <mxGeometry width="50" height="50" relative="1" as="geometry">
            <mxPoint x="-99.36000000000013" y="-174.54500000000007" as="sourcePoint" />
            <mxPoint x="140" y="74" as="targetPoint" />
          </mxGeometry>
        </mxCell>
        <mxCell id="YWUKQ5pkmXSbJJqAoxHA-178" value="" style="endArrow=classic;html=1;rounded=0;exitX=0.45;exitY=-0.001;exitDx=0;exitDy=0;entryX=0.25;entryY=1;entryDx=0;entryDy=0;fontSize=17;exitPerimeter=0;strokeWidth=3;" parent="1" edge="1">
          <mxGeometry width="50" height="50" relative="1" as="geometry">
            <mxPoint x="-154" y="129.67999999999984" as="sourcePoint" />
            <mxPoint x="85.99999999999977" y="-120" as="targetPoint" />
          </mxGeometry>
        </mxCell>
        <mxCell id="YWUKQ5pkmXSbJJqAoxHA-179" value="" style="endArrow=classic;html=1;rounded=0;entryX=0.5;entryY=0;entryDx=0;entryDy=0;fontSize=17;strokeWidth=3;" parent="1" edge="1">
          <mxGeometry width="50" height="50" relative="1" as="geometry">
            <mxPoint x="116" y="-120" as="sourcePoint" />
            <mxPoint x="-124" y="130" as="targetPoint" />
          </mxGeometry>
        </mxCell>
        <mxCell id="YWUKQ5pkmXSbJJqAoxHA-206" value="" style="endArrow=classic;html=1;rounded=0;exitX=0.65;exitY=-0.001;exitDx=0;exitDy=0;entryX=0.449;entryY=1.002;entryDx=0;entryDy=0;fontSize=17;exitPerimeter=0;entryPerimeter=0;strokeWidth=3;" parent="1" edge="1">
          <mxGeometry width="50" height="50" relative="1" as="geometry">
            <mxPoint x="-74" y="129.67999999999984" as="sourcePoint" />
            <mxPoint x="165.5999999999999" y="-119.35799999999995" as="targetPoint" />
          </mxGeometry>
        </mxCell>
        <mxCell id="YWUKQ5pkmXSbJJqAoxHA-207" value="" style="endArrow=classic;html=1;rounded=0;exitX=0.5;exitY=1;exitDx=0;exitDy=0;entryX=0.701;entryY=-0.001;entryDx=0;entryDy=0;fontSize=17;entryPerimeter=0;strokeWidth=3;" parent="1" edge="1">
          <mxGeometry width="50" height="50" relative="1" as="geometry">
            <mxPoint x="196" y="-120" as="sourcePoint" />
            <mxPoint x="-43.59999999999991" y="129.67999999999984" as="targetPoint" />
          </mxGeometry>
        </mxCell>
        <mxCell id="dd5TmF9w7DW6roCzFlCA-358" value="" style="endArrow=classic;html=1;rounded=0;exitX=0;exitY=0.5;exitDx=0;exitDy=0;entryX=1.002;entryY=0.705;entryDx=0;entryDy=0;fontSize=17;entryPerimeter=0;strokeWidth=3;" parent="1" edge="1">
          <mxGeometry width="50" height="50" relative="1" as="geometry">
            <mxPoint x="140" y="184" as="sourcePoint" />
            <mxPoint x="-99.3599999999999" y="-64.29500000000007" as="targetPoint" />
          </mxGeometry>
        </mxCell>
        <mxCell id="dd5TmF9w7DW6roCzFlCA-359" value="" style="endArrow=classic;html=1;rounded=0;exitX=1.002;exitY=0.652;exitDx=0;exitDy=0;entryX=-0.002;entryY=0.449;entryDx=0;entryDy=0;fontSize=17;exitPerimeter=0;entryPerimeter=0;strokeWidth=3;" parent="1" edge="1">
          <mxGeometry width="50" height="50" relative="1" as="geometry">
            <mxPoint x="-99.3599999999999" y="-95.548" as="sourcePoint" />
            <mxPoint x="139.3599999999999" y="153.60000000000014" as="targetPoint" />
          </mxGeometry>
        </mxCell>
        <mxCell id="OoqErYLvcgMZcJx9pa-s-454" style="edgeStyle=orthogonalEdgeStyle;rounded=0;orthogonalLoop=1;jettySize=auto;html=1;exitX=0.996;exitY=0.276;exitDx=0;exitDy=0;entryX=-0.005;entryY=0.596;entryDx=0;entryDy=0;fontSize=17;exitPerimeter=0;entryPerimeter=0;strokeWidth=3;" parent="1" edge="1">
          <mxGeometry relative="1" as="geometry">
            <mxPoint x="60" y="239.82999999999993" as="sourcePoint" />
            <mxPoint x="139.27999999999997" y="240.1500000000001" as="targetPoint" />
            <Array as="points">
              <mxPoint x="120" y="240" />
              <mxPoint x="120" y="240" />
            </Array>
          </mxGeometry>
        </mxCell>
        <mxCell id="OoqErYLvcgMZcJx9pa-s-455" style="edgeStyle=orthogonalEdgeStyle;rounded=0;orthogonalLoop=1;jettySize=auto;html=1;exitX=0.001;exitY=0.656;exitDx=0;exitDy=0;entryX=1.002;entryY=0.324;entryDx=0;entryDy=0;fontSize=17;entryPerimeter=0;exitPerimeter=0;strokeWidth=3;" parent="1" edge="1">
          <mxGeometry relative="1" as="geometry">
            <mxPoint x="60.27999999999997" y="259.43000000000006" as="targetPoint" />
            <mxPoint x="139.27999999999997" y="259.43000000000006" as="sourcePoint" />
          </mxGeometry>
        </mxCell>
        <mxCell id="OoqErYLvcgMZcJx9pa-s-456" style="edgeStyle=orthogonalEdgeStyle;rounded=0;orthogonalLoop=1;jettySize=auto;html=1;exitX=0.996;exitY=0.276;exitDx=0;exitDy=0;entryX=-0.005;entryY=0.596;entryDx=0;entryDy=0;fontSize=17;exitPerimeter=0;entryPerimeter=0;strokeWidth=3;" parent="1" edge="1">
          <mxGeometry relative="1" as="geometry">
            <mxPoint x="60.360000000000014" y="319.8299999999999" as="sourcePoint" />
            <mxPoint x="139.64" y="320.1500000000001" as="targetPoint" />
            <Array as="points">
              <mxPoint x="100" y="320" />
              <mxPoint x="140" y="320" />
            </Array>
          </mxGeometry>
        </mxCell>
        <mxCell id="OoqErYLvcgMZcJx9pa-s-457" style="edgeStyle=orthogonalEdgeStyle;rounded=0;orthogonalLoop=1;jettySize=auto;html=1;exitX=0.001;exitY=0.656;exitDx=0;exitDy=0;entryX=1.002;entryY=0.324;entryDx=0;entryDy=0;fontSize=17;entryPerimeter=0;exitPerimeter=0;strokeWidth=3;" parent="1" edge="1">
          <mxGeometry relative="1" as="geometry">
            <mxPoint x="60.639999999999986" y="339.43000000000006" as="targetPoint" />
            <mxPoint x="139.64" y="339.43000000000006" as="sourcePoint" />
          </mxGeometry>
        </mxCell>
        <mxCell id="OoqErYLvcgMZcJx9pa-s-458" style="edgeStyle=orthogonalEdgeStyle;rounded=0;orthogonalLoop=1;jettySize=auto;html=1;exitX=0.275;exitY=0;exitDx=0;exitDy=0;entryX=0.593;entryY=1.004;entryDx=0;entryDy=0;fontSize=17;entryPerimeter=0;exitPerimeter=0;strokeWidth=3;" parent="1" edge="1">
          <mxGeometry relative="1" as="geometry">
            <mxPoint x="-310" y="40" as="targetPoint" />
            <mxPoint x="-310" y="129" as="sourcePoint" />
          </mxGeometry>
        </mxCell>
        <mxCell id="OoqErYLvcgMZcJx9pa-s-459" style="edgeStyle=orthogonalEdgeStyle;rounded=0;orthogonalLoop=1;jettySize=auto;html=1;entryX=0.327;entryY=0.002;entryDx=0;entryDy=0;fontSize=17;entryPerimeter=0;exitX=0.409;exitY=1.001;exitDx=0;exitDy=0;exitPerimeter=0;strokeWidth=3;" parent="1" edge="1">
          <mxGeometry relative="1" as="geometry">
            <mxPoint x="-289.12" y="40.40099999999984" as="sourcePoint" />
            <mxPoint x="-289" y="130" as="targetPoint" />
            <Array as="points">
              <mxPoint x="-289" y="70" />
              <mxPoint x="-289" y="70" />
            </Array>
          </mxGeometry>
        </mxCell>
        <mxCell id="OoqErYLvcgMZcJx9pa-s-460" style="edgeStyle=orthogonalEdgeStyle;rounded=0;orthogonalLoop=1;jettySize=auto;html=1;exitX=0.275;exitY=0;exitDx=0;exitDy=0;entryX=0.593;entryY=1.004;entryDx=0;entryDy=0;fontSize=17;entryPerimeter=0;exitPerimeter=0;strokeWidth=3;" parent="1" edge="1">
          <mxGeometry relative="1" as="geometry">
            <mxPoint x="250" y="-120" as="targetPoint" />
            <mxPoint x="250" y="-31" as="sourcePoint" />
          </mxGeometry>
        </mxCell>
        <mxCell id="OoqErYLvcgMZcJx9pa-s-461" style="edgeStyle=orthogonalEdgeStyle;rounded=0;orthogonalLoop=1;jettySize=auto;html=1;entryX=0.327;entryY=0.002;entryDx=0;entryDy=0;fontSize=17;entryPerimeter=0;strokeWidth=3;" parent="1" edge="1">
          <mxGeometry relative="1" as="geometry">
            <mxPoint x="271" y="-120" as="sourcePoint" />
            <mxPoint x="271" y="-30" as="targetPoint" />
          </mxGeometry>
        </mxCell>
        <mxCell id="OoqErYLvcgMZcJx9pa-s-463" style="edgeStyle=orthogonalEdgeStyle;rounded=0;orthogonalLoop=1;jettySize=auto;html=1;entryX=0.626;entryY=-0.001;entryDx=0;entryDy=0;fontSize=17;entryPerimeter=0;strokeWidth=3;" parent="1" edge="1">
          <mxGeometry relative="1" as="geometry">
            <mxPoint x="351" y="-120" as="sourcePoint" />
            <mxPoint x="351.32000000000016" y="-30.40000000000009" as="targetPoint" />
          </mxGeometry>
        </mxCell>
        <mxCell id="Zs1bqnlnc841fs8DD6e_-506" value="" style="group" vertex="1" connectable="0" parent="1">
          <mxGeometry x="760" y="-398" width="320" height="890" as="geometry" />
        </mxCell>
        <mxCell id="Zs1bqnlnc841fs8DD6e_-452" value="" style="rounded=0;whiteSpace=wrap;html=1;fillColor=none;fontSize=17;container=0;" vertex="1" parent="Zs1bqnlnc841fs8DD6e_-506">
          <mxGeometry y="490" width="320" height="400" as="geometry" />
        </mxCell>
        <mxCell id="Zs1bqnlnc841fs8DD6e_-453" value="16" style="whiteSpace=wrap;html=1;aspect=fixed;fontSize=17;container=0;fillColor=#dae8fc;strokeColor=#6c8ebf;" vertex="1" parent="Zs1bqnlnc841fs8DD6e_-506">
          <mxGeometry x="20" y="830" width="40" height="40" as="geometry" />
        </mxCell>
        <mxCell id="Zs1bqnlnc841fs8DD6e_-454" value="17" style="whiteSpace=wrap;html=1;aspect=fixed;fontSize=17;container=0;fillColor=#dae8fc;strokeColor=#6c8ebf;" vertex="1" parent="Zs1bqnlnc841fs8DD6e_-506">
          <mxGeometry x="100" y="830" width="40" height="40" as="geometry" />
        </mxCell>
        <mxCell id="Zs1bqnlnc841fs8DD6e_-455" value="18" style="whiteSpace=wrap;html=1;aspect=fixed;fontSize=17;container=0;fillColor=#dae8fc;strokeColor=#6c8ebf;" vertex="1" parent="Zs1bqnlnc841fs8DD6e_-506">
          <mxGeometry x="180" y="830" width="40" height="40" as="geometry" />
        </mxCell>
        <mxCell id="Zs1bqnlnc841fs8DD6e_-456" value="19" style="whiteSpace=wrap;html=1;aspect=fixed;fontSize=17;container=0;fillColor=#dae8fc;strokeColor=#6c8ebf;" vertex="1" parent="Zs1bqnlnc841fs8DD6e_-506">
          <mxGeometry x="260" y="830" width="40" height="40" as="geometry" />
        </mxCell>
        <mxCell id="Zs1bqnlnc841fs8DD6e_-457" value="0" style="whiteSpace=wrap;html=1;aspect=fixed;fontSize=17;container=0;fillColor=#dae8fc;strokeColor=#6c8ebf;" vertex="1" parent="Zs1bqnlnc841fs8DD6e_-506">
          <mxGeometry x="20" y="510" width="40" height="40" as="geometry" />
        </mxCell>
        <mxCell id="Zs1bqnlnc841fs8DD6e_-458" value="1" style="whiteSpace=wrap;html=1;aspect=fixed;fontSize=17;container=0;fillColor=#dae8fc;strokeColor=#6c8ebf;" vertex="1" parent="Zs1bqnlnc841fs8DD6e_-506">
          <mxGeometry x="100" y="510" width="40" height="40" as="geometry" />
        </mxCell>
        <mxCell id="Zs1bqnlnc841fs8DD6e_-459" value="2" style="whiteSpace=wrap;html=1;aspect=fixed;fontSize=17;container=0;fillColor=#dae8fc;strokeColor=#6c8ebf;" vertex="1" parent="Zs1bqnlnc841fs8DD6e_-506">
          <mxGeometry x="180" y="510" width="40" height="40" as="geometry" />
        </mxCell>
        <mxCell id="Zs1bqnlnc841fs8DD6e_-460" value="3" style="whiteSpace=wrap;html=1;aspect=fixed;fontSize=17;container=0;fillColor=#dae8fc;strokeColor=#6c8ebf;" vertex="1" parent="Zs1bqnlnc841fs8DD6e_-506">
          <mxGeometry x="260" y="510" width="40" height="40" as="geometry" />
        </mxCell>
        <mxCell id="Zs1bqnlnc841fs8DD6e_-461" value="4" style="whiteSpace=wrap;html=1;aspect=fixed;fontSize=17;container=0;fillColor=#dae8fc;strokeColor=#6c8ebf;" vertex="1" parent="Zs1bqnlnc841fs8DD6e_-506">
          <mxGeometry x="20" y="590" width="40" height="40" as="geometry" />
        </mxCell>
        <mxCell id="Zs1bqnlnc841fs8DD6e_-462" value="5" style="whiteSpace=wrap;html=1;aspect=fixed;fontSize=17;container=0;fillColor=#dae8fc;strokeColor=#6c8ebf;" vertex="1" parent="Zs1bqnlnc841fs8DD6e_-506">
          <mxGeometry x="100" y="590" width="40" height="40" as="geometry" />
        </mxCell>
        <mxCell id="Zs1bqnlnc841fs8DD6e_-463" value="6" style="whiteSpace=wrap;html=1;aspect=fixed;fontSize=17;container=0;fillColor=#dae8fc;strokeColor=#6c8ebf;" vertex="1" parent="Zs1bqnlnc841fs8DD6e_-506">
          <mxGeometry x="180" y="590" width="40" height="40" as="geometry" />
        </mxCell>
        <mxCell id="Zs1bqnlnc841fs8DD6e_-464" value="7" style="whiteSpace=wrap;html=1;aspect=fixed;fontSize=17;container=0;fillColor=#dae8fc;strokeColor=#6c8ebf;" vertex="1" parent="Zs1bqnlnc841fs8DD6e_-506">
          <mxGeometry x="260" y="590" width="40" height="40" as="geometry" />
        </mxCell>
        <mxCell id="Zs1bqnlnc841fs8DD6e_-465" value="8" style="whiteSpace=wrap;html=1;aspect=fixed;fontSize=17;container=0;fillColor=#dae8fc;strokeColor=#6c8ebf;" vertex="1" parent="Zs1bqnlnc841fs8DD6e_-506">
          <mxGeometry x="20" y="670" width="40" height="40" as="geometry" />
        </mxCell>
        <mxCell id="Zs1bqnlnc841fs8DD6e_-466" value="9" style="whiteSpace=wrap;html=1;aspect=fixed;fontSize=17;container=0;fillColor=#dae8fc;strokeColor=#6c8ebf;" vertex="1" parent="Zs1bqnlnc841fs8DD6e_-506">
          <mxGeometry x="100" y="670" width="40" height="40" as="geometry" />
        </mxCell>
        <mxCell id="Zs1bqnlnc841fs8DD6e_-467" value="10" style="whiteSpace=wrap;html=1;aspect=fixed;fontSize=17;container=0;fillColor=#dae8fc;strokeColor=#6c8ebf;" vertex="1" parent="Zs1bqnlnc841fs8DD6e_-506">
          <mxGeometry x="180" y="670" width="40" height="40" as="geometry" />
        </mxCell>
        <mxCell id="Zs1bqnlnc841fs8DD6e_-468" value="11" style="whiteSpace=wrap;html=1;aspect=fixed;fontSize=17;container=0;fillColor=#dae8fc;strokeColor=#6c8ebf;" vertex="1" parent="Zs1bqnlnc841fs8DD6e_-506">
          <mxGeometry x="260" y="670" width="40" height="40" as="geometry" />
        </mxCell>
        <mxCell id="Zs1bqnlnc841fs8DD6e_-469" value="12" style="whiteSpace=wrap;html=1;aspect=fixed;fontSize=17;container=0;fillColor=#dae8fc;strokeColor=#6c8ebf;" vertex="1" parent="Zs1bqnlnc841fs8DD6e_-506">
          <mxGeometry x="20" y="750" width="40" height="40" as="geometry" />
        </mxCell>
        <mxCell id="Zs1bqnlnc841fs8DD6e_-470" value="13" style="whiteSpace=wrap;html=1;aspect=fixed;fontSize=17;container=0;fillColor=#dae8fc;strokeColor=#6c8ebf;" vertex="1" parent="Zs1bqnlnc841fs8DD6e_-506">
          <mxGeometry x="100" y="750" width="40" height="40" as="geometry" />
        </mxCell>
        <mxCell id="Zs1bqnlnc841fs8DD6e_-471" value="14" style="whiteSpace=wrap;html=1;aspect=fixed;fontSize=17;container=0;fillColor=#dae8fc;strokeColor=#6c8ebf;" vertex="1" parent="Zs1bqnlnc841fs8DD6e_-506">
          <mxGeometry x="180" y="750" width="40" height="40" as="geometry" />
        </mxCell>
        <mxCell id="Zs1bqnlnc841fs8DD6e_-472" value="15" style="whiteSpace=wrap;html=1;aspect=fixed;fontSize=17;container=0;fillColor=#dae8fc;strokeColor=#6c8ebf;" vertex="1" parent="Zs1bqnlnc841fs8DD6e_-506">
          <mxGeometry x="260" y="750" width="40" height="40" as="geometry" />
        </mxCell>
        <mxCell id="Zs1bqnlnc841fs8DD6e_-473" value="" style="rounded=0;whiteSpace=wrap;html=1;fillColor=none;fontSize=17;container=0;" vertex="1" parent="Zs1bqnlnc841fs8DD6e_-506">
          <mxGeometry width="320" height="400" as="geometry" />
        </mxCell>
        <mxCell id="Zs1bqnlnc841fs8DD6e_-474" value="3" style="whiteSpace=wrap;html=1;aspect=fixed;fontSize=17;container=0;fillColor=#dae8fc;strokeColor=#6c8ebf;" vertex="1" parent="Zs1bqnlnc841fs8DD6e_-506">
          <mxGeometry x="20" y="341" width="40" height="40" as="geometry" />
        </mxCell>
        <mxCell id="Zs1bqnlnc841fs8DD6e_-475" value="2" style="whiteSpace=wrap;html=1;aspect=fixed;fontSize=17;container=0;fillColor=#dae8fc;strokeColor=#6c8ebf;" vertex="1" parent="Zs1bqnlnc841fs8DD6e_-506">
          <mxGeometry x="100" y="341" width="40" height="40" as="geometry" />
        </mxCell>
        <mxCell id="Zs1bqnlnc841fs8DD6e_-476" value="1" style="whiteSpace=wrap;html=1;aspect=fixed;fontSize=17;container=0;fillColor=#dae8fc;strokeColor=#6c8ebf;" vertex="1" parent="Zs1bqnlnc841fs8DD6e_-506">
          <mxGeometry x="180" y="341" width="40" height="40" as="geometry" />
        </mxCell>
        <mxCell id="Zs1bqnlnc841fs8DD6e_-477" value="0" style="whiteSpace=wrap;html=1;aspect=fixed;fontSize=17;container=0;fillColor=#dae8fc;strokeColor=#6c8ebf;" vertex="1" parent="Zs1bqnlnc841fs8DD6e_-506">
          <mxGeometry x="260" y="341" width="40" height="40" as="geometry" />
        </mxCell>
        <mxCell id="Zs1bqnlnc841fs8DD6e_-478" value="19" style="whiteSpace=wrap;html=1;aspect=fixed;fontSize=17;container=0;fillColor=#dae8fc;strokeColor=#6c8ebf;" vertex="1" parent="Zs1bqnlnc841fs8DD6e_-506">
          <mxGeometry x="20" y="21" width="40" height="40" as="geometry" />
        </mxCell>
        <mxCell id="Zs1bqnlnc841fs8DD6e_-479" value="18" style="whiteSpace=wrap;html=1;aspect=fixed;fontSize=17;container=0;fillColor=#dae8fc;strokeColor=#6c8ebf;" vertex="1" parent="Zs1bqnlnc841fs8DD6e_-506">
          <mxGeometry x="100" y="21" width="40" height="40" as="geometry" />
        </mxCell>
        <mxCell id="Zs1bqnlnc841fs8DD6e_-480" value="17" style="whiteSpace=wrap;html=1;aspect=fixed;fontSize=17;container=0;fillColor=#dae8fc;strokeColor=#6c8ebf;" vertex="1" parent="Zs1bqnlnc841fs8DD6e_-506">
          <mxGeometry x="180" y="21" width="40" height="40" as="geometry" />
        </mxCell>
        <mxCell id="Zs1bqnlnc841fs8DD6e_-481" value="16" style="whiteSpace=wrap;html=1;aspect=fixed;fontSize=17;container=0;fillColor=#dae8fc;strokeColor=#6c8ebf;" vertex="1" parent="Zs1bqnlnc841fs8DD6e_-506">
          <mxGeometry x="260" y="21" width="40" height="40" as="geometry" />
        </mxCell>
        <mxCell id="Zs1bqnlnc841fs8DD6e_-482" value="15" style="whiteSpace=wrap;html=1;aspect=fixed;fontSize=17;container=0;fillColor=#dae8fc;strokeColor=#6c8ebf;" vertex="1" parent="Zs1bqnlnc841fs8DD6e_-506">
          <mxGeometry x="20" y="101" width="40" height="40" as="geometry" />
        </mxCell>
        <mxCell id="Zs1bqnlnc841fs8DD6e_-483" value="14" style="whiteSpace=wrap;html=1;aspect=fixed;fontSize=17;container=0;fillColor=#dae8fc;strokeColor=#6c8ebf;" vertex="1" parent="Zs1bqnlnc841fs8DD6e_-506">
          <mxGeometry x="100" y="101" width="40" height="40" as="geometry" />
        </mxCell>
        <mxCell id="Zs1bqnlnc841fs8DD6e_-484" value="13" style="whiteSpace=wrap;html=1;aspect=fixed;fontSize=17;container=0;fillColor=#dae8fc;strokeColor=#6c8ebf;" vertex="1" parent="Zs1bqnlnc841fs8DD6e_-506">
          <mxGeometry x="180" y="101" width="40" height="40" as="geometry" />
        </mxCell>
        <mxCell id="Zs1bqnlnc841fs8DD6e_-485" value="12" style="whiteSpace=wrap;html=1;aspect=fixed;fontSize=17;container=0;fillColor=#dae8fc;strokeColor=#6c8ebf;" vertex="1" parent="Zs1bqnlnc841fs8DD6e_-506">
          <mxGeometry x="260" y="101" width="40" height="40" as="geometry" />
        </mxCell>
        <mxCell id="Zs1bqnlnc841fs8DD6e_-486" value="11" style="whiteSpace=wrap;html=1;aspect=fixed;fontSize=17;container=0;fillColor=#dae8fc;strokeColor=#6c8ebf;" vertex="1" parent="Zs1bqnlnc841fs8DD6e_-506">
          <mxGeometry x="20" y="181" width="40" height="40" as="geometry" />
        </mxCell>
        <mxCell id="Zs1bqnlnc841fs8DD6e_-487" value="10" style="whiteSpace=wrap;html=1;aspect=fixed;fontSize=17;container=0;fillColor=#dae8fc;strokeColor=#6c8ebf;" vertex="1" parent="Zs1bqnlnc841fs8DD6e_-506">
          <mxGeometry x="100" y="181" width="40" height="40" as="geometry" />
        </mxCell>
        <mxCell id="Zs1bqnlnc841fs8DD6e_-488" value="9" style="whiteSpace=wrap;html=1;aspect=fixed;fontSize=17;container=0;fillColor=#dae8fc;strokeColor=#6c8ebf;" vertex="1" parent="Zs1bqnlnc841fs8DD6e_-506">
          <mxGeometry x="180" y="181" width="40" height="40" as="geometry" />
        </mxCell>
        <mxCell id="Zs1bqnlnc841fs8DD6e_-489" value="8" style="whiteSpace=wrap;html=1;aspect=fixed;fontSize=17;container=0;fillColor=#dae8fc;strokeColor=#6c8ebf;" vertex="1" parent="Zs1bqnlnc841fs8DD6e_-506">
          <mxGeometry x="260" y="181" width="40" height="40" as="geometry" />
        </mxCell>
        <mxCell id="Zs1bqnlnc841fs8DD6e_-490" value="7" style="whiteSpace=wrap;html=1;aspect=fixed;fontSize=17;container=0;fillColor=#dae8fc;strokeColor=#6c8ebf;" vertex="1" parent="Zs1bqnlnc841fs8DD6e_-506">
          <mxGeometry x="20" y="261" width="40" height="40" as="geometry" />
        </mxCell>
        <mxCell id="Zs1bqnlnc841fs8DD6e_-491" value="6" style="whiteSpace=wrap;html=1;aspect=fixed;fontSize=17;container=0;fillColor=#dae8fc;strokeColor=#6c8ebf;" vertex="1" parent="Zs1bqnlnc841fs8DD6e_-506">
          <mxGeometry x="100" y="261" width="40" height="40" as="geometry" />
        </mxCell>
        <mxCell id="Zs1bqnlnc841fs8DD6e_-492" value="5" style="whiteSpace=wrap;html=1;aspect=fixed;fontSize=17;container=0;fillColor=#dae8fc;strokeColor=#6c8ebf;" vertex="1" parent="Zs1bqnlnc841fs8DD6e_-506">
          <mxGeometry x="180" y="261" width="40" height="40" as="geometry" />
        </mxCell>
        <mxCell id="Zs1bqnlnc841fs8DD6e_-493" value="4" style="whiteSpace=wrap;html=1;aspect=fixed;fontSize=17;container=0;fillColor=#dae8fc;strokeColor=#6c8ebf;" vertex="1" parent="Zs1bqnlnc841fs8DD6e_-506">
          <mxGeometry x="260" y="261" width="40" height="40" as="geometry" />
        </mxCell>
        <mxCell id="Zs1bqnlnc841fs8DD6e_-498" style="edgeStyle=orthogonalEdgeStyle;rounded=0;orthogonalLoop=1;jettySize=auto;html=1;exitX=0.275;exitY=0;exitDx=0;exitDy=0;entryX=0.593;entryY=1.001;entryDx=0;entryDy=0;fontSize=17;entryPerimeter=0;exitPerimeter=0;strokeWidth=3;" edge="1" parent="Zs1bqnlnc841fs8DD6e_-506">
          <mxGeometry relative="1" as="geometry">
            <mxPoint x="109.75999999999999" y="400.40099999999984" as="targetPoint" />
            <mxPoint x="110" y="490" as="sourcePoint" />
            <Array as="points">
              <mxPoint x="110" y="470" />
              <mxPoint x="110" y="470" />
            </Array>
          </mxGeometry>
        </mxCell>
        <mxCell id="Zs1bqnlnc841fs8DD6e_-499" style="edgeStyle=orthogonalEdgeStyle;rounded=0;orthogonalLoop=1;jettySize=auto;html=1;entryX=0.327;entryY=0.002;entryDx=0;entryDy=0;fontSize=17;entryPerimeter=0;strokeWidth=3;" edge="1" parent="Zs1bqnlnc841fs8DD6e_-506">
          <mxGeometry relative="1" as="geometry">
            <mxPoint x="130" y="400" as="sourcePoint" />
            <mxPoint x="130.79999999999984" y="490.6399999999999" as="targetPoint" />
            <Array as="points">
              <mxPoint x="131" y="400" />
            </Array>
          </mxGeometry>
        </mxCell>
        <mxCell id="Zs1bqnlnc841fs8DD6e_-500" style="edgeStyle=orthogonalEdgeStyle;rounded=0;orthogonalLoop=1;jettySize=auto;html=1;exitX=0.275;exitY=0;exitDx=0;exitDy=0;entryX=0.593;entryY=1.004;entryDx=0;entryDy=0;fontSize=17;entryPerimeter=0;exitPerimeter=0;strokeWidth=3;" edge="1" parent="Zs1bqnlnc841fs8DD6e_-506">
          <mxGeometry relative="1" as="geometry">
            <mxPoint x="30" y="400" as="targetPoint" />
            <mxPoint x="30" y="489" as="sourcePoint" />
            <Array as="points">
              <mxPoint x="30" y="420" />
              <mxPoint x="30" y="420" />
            </Array>
          </mxGeometry>
        </mxCell>
        <mxCell id="Zs1bqnlnc841fs8DD6e_-501" style="edgeStyle=orthogonalEdgeStyle;rounded=0;orthogonalLoop=1;jettySize=auto;html=1;entryX=0.327;entryY=0.002;entryDx=0;entryDy=0;fontSize=17;entryPerimeter=0;exitX=0.409;exitY=1.001;exitDx=0;exitDy=0;exitPerimeter=0;strokeWidth=3;" edge="1" parent="Zs1bqnlnc841fs8DD6e_-506">
          <mxGeometry relative="1" as="geometry">
            <mxPoint x="50.879999999999995" y="400.40099999999984" as="sourcePoint" />
            <mxPoint x="51" y="490" as="targetPoint" />
            <Array as="points">
              <mxPoint x="51" y="430" />
              <mxPoint x="51" y="430" />
            </Array>
          </mxGeometry>
        </mxCell>
        <mxCell id="Zs1bqnlnc841fs8DD6e_-502" style="edgeStyle=orthogonalEdgeStyle;rounded=0;orthogonalLoop=1;jettySize=auto;html=1;exitX=0.275;exitY=0;exitDx=0;exitDy=0;entryX=0.593;entryY=1.001;entryDx=0;entryDy=0;fontSize=17;entryPerimeter=0;exitPerimeter=0;strokeWidth=3;" edge="1" parent="Zs1bqnlnc841fs8DD6e_-506">
          <mxGeometry relative="1" as="geometry">
            <mxPoint x="266.76" y="400.40099999999984" as="targetPoint" />
            <mxPoint x="267" y="490" as="sourcePoint" />
            <Array as="points">
              <mxPoint x="267" y="470" />
              <mxPoint x="267" y="470" />
            </Array>
          </mxGeometry>
        </mxCell>
        <mxCell id="Zs1bqnlnc841fs8DD6e_-503" style="edgeStyle=orthogonalEdgeStyle;rounded=0;orthogonalLoop=1;jettySize=auto;html=1;entryX=0.327;entryY=0.002;entryDx=0;entryDy=0;fontSize=17;entryPerimeter=0;strokeWidth=3;" edge="1" parent="Zs1bqnlnc841fs8DD6e_-506">
          <mxGeometry relative="1" as="geometry">
            <mxPoint x="287" y="400" as="sourcePoint" />
            <mxPoint x="287.7999999999997" y="490.6399999999999" as="targetPoint" />
            <Array as="points">
              <mxPoint x="288" y="400" />
            </Array>
          </mxGeometry>
        </mxCell>
        <mxCell id="Zs1bqnlnc841fs8DD6e_-504" style="edgeStyle=orthogonalEdgeStyle;rounded=0;orthogonalLoop=1;jettySize=auto;html=1;exitX=0.275;exitY=0;exitDx=0;exitDy=0;entryX=0.593;entryY=1.004;entryDx=0;entryDy=0;fontSize=17;entryPerimeter=0;exitPerimeter=0;strokeWidth=3;" edge="1" parent="Zs1bqnlnc841fs8DD6e_-506">
          <mxGeometry relative="1" as="geometry">
            <mxPoint x="187" y="400" as="targetPoint" />
            <mxPoint x="187" y="489" as="sourcePoint" />
            <Array as="points">
              <mxPoint x="187" y="420" />
              <mxPoint x="187" y="420" />
            </Array>
          </mxGeometry>
        </mxCell>
        <mxCell id="Zs1bqnlnc841fs8DD6e_-505" style="edgeStyle=orthogonalEdgeStyle;rounded=0;orthogonalLoop=1;jettySize=auto;html=1;entryX=0.327;entryY=0.002;entryDx=0;entryDy=0;fontSize=17;entryPerimeter=0;exitX=0.409;exitY=1.001;exitDx=0;exitDy=0;exitPerimeter=0;strokeWidth=3;" edge="1" parent="Zs1bqnlnc841fs8DD6e_-506">
          <mxGeometry relative="1" as="geometry">
            <mxPoint x="207.8800000000001" y="400.40099999999984" as="sourcePoint" />
            <mxPoint x="208" y="490" as="targetPoint" />
            <Array as="points">
              <mxPoint x="208" y="430" />
              <mxPoint x="208" y="430" />
            </Array>
          </mxGeometry>
        </mxCell>
      </root>
    </mxGraphModel>
  </diagram>
</mxfile>
